<?xml version="1.0" standalone="no"?>
<!DOCTYPE svg PUBLIC "-//W3C//DTD SVG 20010904//EN"
 "http://www.w3.org/TR/2001/REC-SVG-20010904/DTD/svg10.dtd">
<svg version="1.0" xmlns="http://www.w3.org/2000/svg"
 width="1197.000000pt" height="1197.000000pt" viewBox="0 0 1197.000000 1197.000000"
 preserveAspectRatio="xMidYMid meet">
<metadata>
Created by potrace 1.11, written by Peter Selinger 2001-2013
</metadata>
<g transform="translate(0.000000,1197.000000) scale(0.100000,-0.100000)"
fill="#000000" stroke="none">
<path d="M5179 10480 c-14 -4 -38 -15 -52 -25 -15 -9 -27 -14 -27 -9 0 4 -16
-9 -37 -29 -20 -20 -40 -37 -44 -37 -4 0 -11 -10 -14 -21 -6 -17 -9 -19 -16
-8 -7 12 -9 11 -9 -1 0 -8 -30 -44 -67 -80 -38 -36 -68 -67 -68 -70 -1 -9
-117 -120 -126 -120 -5 0 -9 -5 -9 -11 0 -5 -4 -7 -10 -4 -5 3 -10 15 -10 26
0 10 -4 19 -10 19 -5 0 -10 6 -10 13 0 7 -9 23 -20 35 -23 24 -26 36 -7 26 6
-3 1 4 -13 17 -14 13 -21 21 -15 17 6 -4 11 0 11 11 0 11 -8 17 -20 17 -12 -1
-21 6 -21 14 0 9 -8 14 -20 12 -20 -4 -20 -3 0 12 19 15 19 15 1 16 -14 0 -17
5 -13 23 6 22 6 22 -10 2 -15 -20 -15 -20 -10 3 4 19 3 21 -9 11 -13 -10 -18
-6 -15 14 0 4 -4 7 -10 7 -8 0 -7 6 2 17 13 15 12 15 -10 3 -21 -11 -23 -10
-18 4 6 14 3 15 -16 5 -18 -9 -20 -9 -9 2 6 7 12 18 12 24 0 5 -5 3 -10 -5 -9
-13 -13 -12 -30 8 -16 20 -30 24 -84 25 -35 1 -62 -1 -59 -5 2 -5 0 -8 -6 -8
-5 0 -17 -7 -26 -17 -14 -14 -18 -14 -27 -2 -8 11 -9 10 -4 -4 4 -12 -10 -33
-44 -68 -27 -27 -50 -53 -51 -57 -6 -23 -24 -52 -31 -52 -5 0 -7 -4 -3 -9 3
-5 1 -12 -5 -16 -5 -3 -10 -15 -10 -26 0 -13 -4 -18 -12 -13 -7 4 -10 4 -6 -1
4 -4 2 -15 -5 -23 -10 -13 -9 -14 3 -7 8 4 3 -5 -12 -21 -15 -16 -31 -41 -37
-56 -10 -27 -31 -39 -31 -17 0 5 5 7 12 3 6 -4 8 -3 4 4 -3 6 -15 9 -26 7 -12
-2 -18 0 -15 5 3 5 -3 11 -14 15 -23 7 -34 32 -19 41 6 4 8 3 5 -3 -4 -6 1
-17 11 -24 15 -12 15 -12 5 1 -10 14 -13 21 -13 35 0 2 -11 0 -25 -5 -19 -7
-23 -6 -18 5 3 8 -2 17 -10 21 -9 3 -13 12 -10 20 4 10 0 12 -13 7 -16 -6 -17
-5 -6 9 10 13 10 18 1 24 -7 4 -9 3 -6 -3 4 -6 0 -13 -8 -17 -10 -3 -15 1 -15
13 0 10 -7 22 -16 25 -14 5 -15 4 -4 -9 8 -9 8 -15 2 -15 -6 0 -13 9 -17 19
-4 15 -13 18 -31 15 -15 -3 -33 1 -42 8 -13 11 -14 11 -7 -1 6 -11 3 -13 -13
-9 -12 4 -20 2 -16 -3 3 -5 -6 -14 -20 -21 -14 -6 -26 -15 -26 -20 0 -4 -5 -8
-11 -8 -5 0 -7 5 -3 12 4 7 3 8 -5 4 -6 -4 -8 -12 -5 -18 5 -8 1 -9 -10 -5
-10 4 -15 3 -11 -3 4 -6 -14 -31 -39 -56 -25 -25 -46 -50 -46 -56 0 -5 -9 -22
-20 -38 -11 -15 -17 -30 -13 -34 3 -3 2 -6 -3 -6 -17 0 -71 -123 -66 -152 2
-9 -2 -19 -7 -22 -6 -4 -8 -13 -5 -20 3 -7 -2 -16 -10 -19 -13 -5 -16 -26 -16
-121 0 -66 4 -117 10 -121 6 -3 10 -21 10 -39 0 -17 6 -38 13 -44 6 -7 12 -23
13 -35 1 -12 4 -29 7 -37 4 -8 8 -28 11 -45 2 -16 5 -30 6 -30 1 0 3 -8 6 -17
2 -10 6 -26 8 -35 3 -10 5 -18 6 -18 1 0 3 -7 5 -15 2 -8 6 -28 10 -45 4 -16
8 -39 10 -50 2 -11 4 -20 6 -20 1 0 3 -13 4 -30 1 -16 7 -41 12 -55 6 -14 9
-35 8 -47 -1 -13 2 -23 7 -23 5 0 8 -10 7 -22 -2 -13 1 -30 6 -38 10 -16 16
-35 17 -60 1 -8 5 -17 9 -20 4 -3 10 -19 13 -35 2 -17 5 -31 6 -32 2 -2 3 -6
4 -10 1 -5 5 -14 10 -22 7 -11 6 -12 -5 -6 -11 7 -12 6 -2 -7 7 -8 10 -18 6
-21 -3 -4 -1 -7 6 -7 9 0 12 -9 9 -25 -3 -13 -2 -22 2 -20 5 3 11 -2 14 -11 4
-10 2 -13 -7 -9 -6 4 -3 -1 7 -9 15 -12 16 -16 5 -16 -9 0 -10 -3 -3 -8 16
-11 45 -74 31 -66 -7 3 -5 0 4 -8 9 -7 15 -21 13 -30 -1 -10 3 -21 8 -25 7 -4
8 -1 3 7 -5 8 -4 11 3 6 6 -4 9 -13 5 -21 -3 -8 0 -15 7 -15 7 0 10 -8 7 -20
-3 -11 -1 -18 3 -15 5 3 21 -22 36 -55 15 -33 31 -60 35 -60 5 0 9 -9 9 -21 0
-11 4 -17 10 -14 6 3 7 -1 4 -9 -4 -10 1 -18 11 -22 13 -5 14 -9 3 -15 -10 -7
-10 -9 0 -9 6 0 12 -7 12 -15 0 -8 5 -15 10 -15 6 0 9 -3 9 -7 -3 -19 2 -34 9
-29 5 3 9 -1 10 -9 1 -8 3 -22 4 -30 1 -8 5 -15 10 -15 4 0 8 -7 8 -15 0 -8 5
-15 10 -15 6 0 10 -9 10 -20 0 -11 5 -20 10 -20 6 0 10 -5 10 -11 0 -7 8 -18
18 -26 9 -8 11 -12 5 -8 -9 4 -11 1 -7 -9 3 -9 11 -16 16 -16 6 0 8 -7 5 -14
-4 -11 -1 -13 10 -9 9 4 14 2 11 -3 -8 -14 10 -56 22 -49 6 4 7 -1 3 -11 -5
-13 -3 -15 7 -9 10 6 12 1 7 -22 -6 -30 -3 -35 43 -90 5 -7 10 -16 10 -22 0
-5 7 -11 15 -15 8 -3 15 -12 15 -21 0 -8 5 -15 10 -15 6 0 10 -7 10 -15 0 -8
3 -15 8 -15 4 0 21 -21 37 -45 17 -25 33 -45 38 -45 4 0 7 -5 7 -11 0 -6 14
-24 30 -39 17 -15 30 -33 30 -39 0 -6 9 -16 20 -23 11 -7 20 -17 20 -23 0 -6
11 -19 25 -29 14 -10 25 -25 25 -32 0 -8 9 -19 20 -26 11 -7 20 -16 20 -21 0
-4 10 -18 23 -31 34 -37 91 -106 101 -125 5 -9 19 -26 32 -37 13 -12 24 -26
24 -32 0 -6 4 -12 8 -14 5 -1 25 -27 44 -57 l36 -53 -18 -67 c-23 -82 -32
-107 -72 -193 -28 -62 -33 -68 -62 -68 -72 -1 -211 -8 -356 -19 -85 -6 -351
-17 -590 -26 -240 -8 -480 -19 -535 -24 -55 -6 -154 -13 -220 -17 -66 -3 -125
-10 -131 -15 -6 -5 -43 -10 -82 -11 -40 -2 -72 -6 -72 -9 0 -3 -28 -11 -62
-17 -91 -15 -156 -36 -178 -55 -11 -9 -24 -16 -28 -16 -16 2 -52 -14 -52 -24
0 -6 -3 -7 -6 -4 -7 7 -64 -23 -64 -34 0 -4 -11 -10 -25 -13 -14 -4 -25 -13
-25 -21 0 -8 -8 -15 -17 -15 -16 0 -16 2 -3 11 13 9 13 10 0 6 -8 -2 -14 -9
-13 -15 1 -5 -4 -16 -12 -22 -8 -7 -15 -9 -15 -6 0 4 -7 1 -15 -8 -8 -8 -15
-22 -15 -32 0 -10 -3 -15 -6 -12 -3 4 -22 -11 -41 -33 -20 -22 -38 -38 -40
-35 -2 2 -56 -47 -119 -110 -113 -112 -116 -114 -151 -108 -20 4 -38 2 -42 -3
-3 -5 -46 -18 -96 -27 -49 -9 -95 -18 -102 -20 -7 -1 -16 -5 -19 -9 -4 -4 -17
-7 -28 -7 -12 0 -32 -6 -46 -13 -14 -7 -35 -12 -48 -11 -12 1 -22 -3 -22 -7 0
-5 -9 -9 -20 -9 -11 0 -23 -6 -26 -14 -3 -8 -13 -13 -22 -12 -9 2 -23 -3 -30
-11 -8 -7 -18 -11 -23 -8 -5 4 -9 1 -9 -6 0 -8 -4 -8 -15 1 -13 11 -14 10 -9
-5 5 -13 4 -16 -4 -11 -7 4 -15 1 -18 -8 -3 -9 -10 -13 -15 -10 -5 3 -9 0 -9
-7 0 -7 -3 -10 -6 -7 -3 3 -19 -7 -37 -23 -17 -16 -37 -27 -44 -24 -7 2 -13
-3 -13 -11 0 -8 -4 -13 -9 -10 -5 3 -11 -1 -15 -9 -3 -9 -12 -12 -22 -8 -12 4
-15 3 -10 -5 5 -8 0 -12 -13 -12 -15 0 -21 -6 -21 -21 0 -18 -2 -20 -16 -9 -8
8 -14 9 -13 4 4 -23 -2 -45 -11 -39 -5 3 -10 -1 -10 -10 0 -9 -4 -13 -10 -10
-5 3 -10 1 -10 -4 0 -6 5 -11 12 -11 6 0 3 -7 -8 -15 -16 -13 -16 -14 -1 -9
11 4 17 1 17 -7 1 -9 8 -5 20 10 11 13 20 18 20 11 0 -9 3 -10 13 -1 9 7 17 7
24 0 11 -11 46 -1 38 11 -3 5 8 5 24 0 16 -4 32 -6 35 -3 3 3 11 1 18 -4 21
-16 214 -35 338 -33 238 4 307 2 390 -9 79 -11 148 -29 160 -41 3 -3 26 -16
53 -29 26 -13 47 -27 47 -31 0 -16 50 -60 75 -66 14 -3 24 -9 21 -12 -3 -3 5
-15 19 -27 13 -13 21 -26 18 -29 -4 -3 1 -6 11 -6 10 0 14 -5 10 -12 -4 -6 -3
-8 4 -4 6 3 15 -2 21 -11 6 -10 11 -14 11 -10 0 5 7 1 16 -7 8 -9 20 -13 26
-10 7 4 8 2 4 -4 -4 -7 -1 -12 8 -12 9 0 16 -7 16 -16 0 -8 5 -12 10 -9 6 3
10 1 10 -4 0 -6 7 -11 15 -11 8 0 15 -4 15 -10 0 -5 6 -10 13 -10 8 0 22 -9
32 -20 10 -12 25 -18 32 -16 7 3 13 1 13 -5 0 -6 5 -7 10 -4 6 3 10 1 10 -4 0
-6 9 -11 19 -11 10 0 21 -6 24 -13 3 -8 21 -23 41 -35 31 -18 36 -19 36 -5 0
13 4 12 19 -5 10 -12 23 -22 30 -22 6 0 11 -5 11 -11 0 -5 4 -7 10 -4 6 3 10
1 10 -4 0 -6 5 -11 11 -11 6 0 26 -12 45 -26 18 -14 41 -24 49 -20 8 3 14 0
12 -7 -1 -7 6 -11 15 -11 10 1 16 -1 14 -5 -3 -4 4 -13 16 -20 11 -7 18 -8 14
-3 -3 5 1 9 9 9 8 0 12 -4 10 -8 -3 -3 2 -12 10 -19 10 -9 15 -9 15 -1 0 6 9
2 20 -9 11 -11 29 -20 39 -20 11 0 22 -4 26 -10 3 -5 13 -6 22 -3 12 5 14 3 8
-7 -6 -10 -4 -12 8 -7 10 3 17 2 17 -4 0 -6 5 -7 10 -4 6 3 10 1 10 -6 0 -7 3
-10 6 -6 4 3 14 -1 22 -10 12 -11 17 -12 20 -4 3 8 10 4 19 -9 12 -18 17 -19
31 -8 14 11 15 10 9 -5 -5 -13 -3 -17 5 -15 7 3 19 -1 26 -8 7 -7 20 -10 29
-7 10 4 14 2 10 -4 -3 -5 6 -16 21 -23 15 -7 35 -16 44 -21 10 -5 25 -9 33 -9
9 0 18 -7 21 -15 4 -10 13 -13 26 -9 13 4 18 2 14 -4 -5 -8 45 -37 66 -37 4 0
13 -6 20 -14 10 -10 10 -12 1 -7 -7 4 -13 5 -13 2 0 -3 9 -10 20 -16 15 -8 19
-7 16 2 -1 7 -1 10 1 5 3 -4 9 -5 14 -2 5 4 6 -1 3 -9 -6 -16 10 -23 19 -8 2
4 2 2 1 -5 -5 -19 21 -34 34 -21 7 7 13 9 13 5 1 -4 2 -13 3 -19 1 -7 7 -12
14 -11 7 2 12 -2 12 -7 0 -6 7 -10 15 -10 8 0 15 -6 15 -12 0 -10 3 -9 9 1 7
11 10 9 16 -8 4 -13 13 -20 23 -19 9 2 17 -4 17 -12 0 -8 8 -14 17 -14 10 1
16 -1 15 -5 -1 -3 6 -17 16 -31 9 -13 17 -20 17 -14 0 5 -3 15 -7 20 -5 6 7
-6 26 -25 19 -20 31 -29 27 -21 -4 8 2 4 13 -10 11 -14 21 -19 21 -12 0 6 4
12 10 12 5 0 6 -8 3 -17 -5 -13 -2 -15 11 -10 9 4 15 3 12 -2 -6 -9 12 -20 26
-17 4 0 14 -8 22 -19 8 -11 19 -21 25 -21 6 -1 16 -2 22 -3 5 0 7 -5 4 -11 -3
-5 3 -10 14 -10 12 0 21 -4 21 -10 0 -5 5 -10 11 -10 5 0 7 6 3 13 -4 7 -3 9
2 4 5 -5 9 -14 9 -20 0 -7 9 -12 20 -12 11 0 25 -6 31 -14 6 -8 18 -11 27 -8
12 4 14 2 10 -11 -6 -15 -5 -16 13 -2 10 8 16 10 12 6 -12 -14 25 -36 39 -25
7 7 14 6 19 -2 5 -8 3 -9 -6 -4 -8 5 -11 4 -7 -2 4 -6 20 -9 37 -8 16 1 28 -1
25 -5 -3 -4 2 -11 11 -14 10 -4 13 -2 8 7 -4 6 2 4 14 -7 12 -10 28 -16 37
-13 8 4 14 1 12 -5 -2 -9 18 -17 51 -20 6 -1 12 -6 12 -11 0 -6 3 -7 7 -4 3 4
15 -1 26 -10 15 -13 19 -14 13 -3 -4 8 -1 7 8 -4 8 -10 19 -15 25 -11 6 3 11
1 11 -4 0 -6 7 -11 15 -11 9 0 25 -9 37 -20 15 -14 25 -17 34 -9 9 7 16 5 23
-10 7 -12 17 -18 26 -15 8 4 18 -1 21 -10 3 -9 10 -13 16 -10 5 3 15 -2 23
-12 7 -11 17 -16 20 -12 4 4 14 1 22 -7 8 -8 23 -15 34 -15 10 0 19 -4 19 -8
0 -8 6 -10 49 -14 11 -1 17 -6 15 -10 -5 -8 0 -10 29 -12 6 -1 18 -8 25 -16
12 -13 13 -13 6 0 -5 10 -1 9 14 -4 12 -10 28 -16 38 -12 11 4 18 0 21 -14 4
-15 9 -18 18 -10 10 8 17 5 29 -12 11 -15 16 -18 16 -8 1 11 4 10 15 -4 8 -11
15 -16 15 -10 0 5 5 2 10 -6 8 -13 10 -13 10 -1 0 11 4 10 16 -5 8 -10 13 -13
9 -7 -4 9 -1 11 9 7 9 -3 14 -9 11 -14 -2 -4 7 -6 20 -4 14 1 25 -2 25 -6 0
-34 538 -165 647 -158 21 1 38 -3 40 -9 2 -6 15 -9 29 -7 13 2 24 1 24 -4 0
-4 18 -7 40 -5 22 1 45 -3 52 -10 7 -7 29 -13 48 -14 19 -1 55 -6 79 -11 85
-19 1037 0 1076 21 11 6 24 10 29 9 15 -5 46 9 41 18 -6 10 55 39 89 42 14 1
26 6 26 11 0 5 6 4 14 -2 9 -8 16 -8 20 -2 4 5 15 8 26 6 11 -2 20 1 20 6 0 6
4 8 9 4 6 -3 14 3 20 12 10 17 10 17 11 -2 1 -17 2 -18 13 -5 7 8 27 15 46 15
19 -1 40 5 47 13 8 7 14 10 14 5 0 -4 5 -1 10 7 7 11 10 11 10 2 0 -7 5 -10
10 -7 6 4 8 11 5 16 -3 5 2 6 11 2 15 -6 16 -1 11 35 -6 36 -4 43 19 61 15 12
31 21 37 21 6 0 18 7 28 16 9 8 26 16 37 17 11 0 19 4 16 8 -2 4 0 10 5 13 12
8 19 -14 16 -46 -7 -59 -39 -194 -52 -214 -7 -11 -22 -46 -33 -78 -11 -33 -24
-64 -29 -70 -15 -19 -24 -79 -24 -156 1 -76 17 -160 32 -160 4 0 7 -12 6 -27
-1 -16 1 -32 4 -38 3 -5 6 -32 7 -60 1 -27 3 -57 3 -66 1 -9 12 -22 26 -29 18
-10 22 -16 13 -22 -19 -12 0 -10 24 3 15 8 19 8 14 0 -6 -10 6 -15 27 -12 4 0
7 -3 7 -9 0 -5 7 -10 16 -10 8 0 12 -5 9 -10 -3 -6 -1 -10 4 -10 6 0 11 6 11
13 0 9 2 9 9 -1 4 -7 17 -14 29 -15 15 -1 18 -5 11 -13 -8 -9 -4 -12 15 -10
14 2 23 -1 20 -5 -3 -5 5 -9 18 -9 18 0 20 -2 8 -10 -12 -8 -9 -10 12 -10 15
0 30 -5 34 -12 5 -7 3 -8 -6 -3 -9 5 -11 4 -6 -4 4 -6 11 -9 16 -6 5 3 19 1
31 -6 17 -9 20 -8 13 3 -4 7 3 4 16 -7 13 -11 21 -15 17 -9 -3 6 0 11 7 11 8
0 12 -7 9 -15 -4 -10 1 -13 18 -10 16 2 24 -2 24 -12 0 -8 8 -14 18 -14 9 1
14 -2 11 -7 -3 -5 2 -9 10 -9 9 0 16 -5 16 -11 0 -8 5 -8 15 1 13 10 15 9 15
-8 0 -12 5 -24 12 -28 7 -4 8 -3 4 4 -5 8 -2 10 8 6 9 -3 13 -11 9 -17 -4 -6
0 -8 11 -4 11 4 15 3 11 -4 -4 -6 2 -13 14 -16 12 -3 18 -10 14 -17 -4 -6 2
-4 12 4 17 14 18 13 12 -2 -3 -10 -1 -20 5 -24 7 -4 8 -3 4 4 -4 7 -2 12 3 12
6 0 11 -4 11 -10 0 -5 10 -10 21 -10 12 0 28 -8 35 -17 10 -13 13 -14 14 -4 0
10 3 11 14 2 9 -7 17 -8 20 -2 3 5 15 7 26 4 30 -8 72 5 63 20 -4 8 -1 7 10
-2 14 -11 22 -11 50 2 32 15 62 58 50 71 -3 3 -14 1 -24 -5 -11 -5 -19 -7 -19
-3 0 3 -6 1 -14 -5 -9 -7 -32 -10 -58 -7 -24 3 -49 5 -56 5 -20 1 -74 62 -68
77 3 8 1 14 -5 14 -6 0 -9 6 -6 14 3 8 -1 17 -8 20 -18 7 -8 36 11 36 8 0 17
7 20 15 4 8 10 12 15 9 11 -7 86 63 77 72 -4 3 -22 1 -40 -6 -18 -6 -51 -14
-74 -16 -36 -4 -42 -1 -52 21 -6 14 -21 26 -32 26 -11 1 -28 2 -37 3 -10 0
-24 6 -31 13 -8 7 -18 10 -24 7 -7 -5 -8 -2 -4 5 5 8 3 11 -6 9 -7 -2 -15 1
-16 7 -1 5 16 10 38 11 22 0 40 -3 40 -8 0 -4 41 -7 91 -5 66 2 93 7 99 17 8
13 10 13 10 1 0 -11 4 -10 16 5 8 10 12 12 8 4 -5 -10 1 -8 16 5 13 11 20 14
16 7 -7 -11 -4 -12 13 -2 12 6 18 16 15 22 -4 6 -3 8 4 5 14 -10 42 2 42 18 0
7 7 16 16 19 8 3 12 10 9 16 -3 5 0 10 8 10 20 0 31 64 16 91 l-11 22 -19 -24
-18 -24 4 23 c2 13 0 20 -6 17 -5 -4 -8 -9 -5 -13 2 -4 0 -15 -3 -26 -10 -26
-130 -35 -163 -12 -24 17 -73 21 -82 7 -8 -12 -169 -11 -184 2 -7 5 -35 14
-62 18 -43 7 -58 16 -115 73 -39 39 -60 66 -51 66 9 0 18 -1 19 -2 2 -2 12 4
22 12 20 17 51 35 84 50 17 8 27 7 39 -2 12 -10 14 -10 8 0 -5 8 -1 12 11 12
10 0 29 3 42 7 18 4 22 3 16 -6 -4 -8 4 -6 18 4 15 9 32 13 38 9 7 -4 9 -3 6
3 -4 7 12 13 41 18 66 9 111 26 116 44 2 9 10 40 17 69 7 28 16 52 21 52 4 0
8 5 8 11 0 6 6 17 13 24 6 8 18 21 25 29 6 8 31 21 55 28 23 6 45 17 49 23 5
6 8 6 8 0 0 -5 5 -3 10 5 8 12 10 12 10 -5 0 -11 4 -15 8 -10 4 6 15 11 25 11
10 1 16 0 13 -3 -3 -3 0 -15 6 -27 7 -11 13 -25 13 -31 1 -5 7 -9 14 -7 7 1
10 -2 7 -7 -7 -11 14 -61 26 -61 4 0 7 -6 6 -12 -2 -7 2 -12 9 -11 8 2 10 -4
6 -14 -4 -11 -3 -14 6 -9 6 4 11 4 10 -1 -3 -11 13 -67 20 -73 3 -3 12 -16 19
-29 11 -19 11 -22 0 -16 -7 3 -4 -2 8 -12 11 -10 19 -24 16 -31 -2 -6 2 -12 8
-12 7 0 10 -7 6 -15 -3 -8 -1 -15 5 -15 6 0 9 -7 5 -15 -3 -8 -2 -14 2 -14 22
4 32 -3 32 -22 0 -11 4 -18 9 -15 5 3 8 -2 7 -12 0 -10 6 -17 16 -16 11 1 15
-5 13 -17 -2 -12 2 -19 11 -19 8 0 12 -5 9 -10 -3 -6 1 -10 9 -10 9 0 16 -7
16 -15 0 -9 6 -18 14 -21 8 -3 17 -12 20 -20 3 -8 2 -12 -3 -9 -5 3 -13 0 -17
-6 -4 -7 -3 -9 4 -5 6 3 17 -1 25 -9 12 -11 17 -12 20 -2 4 7 6 6 6 -4 1 -20
65 -71 76 -61 5 4 5 2 2 -4 -4 -7 0 -18 9 -25 8 -7 22 -26 30 -42 9 -16 18
-26 21 -23 6 6 43 -37 43 -51 0 -5 16 -26 35 -47 25 -28 41 -37 55 -33 11 3
23 0 27 -5 4 -7 1 -8 -8 -3 -8 5 -10 4 -6 0 12 -14 37 -15 37 -2 0 8 3 8 8 2
4 -6 14 -10 22 -10 8 0 21 -6 29 -13 12 -11 15 -11 22 0 6 8 9 9 9 1 0 -6 13
-10 30 -9 17 1 32 -4 34 -11 3 -7 10 -13 16 -13 6 0 8 4 5 10 -3 6 1 7 9 4 9
-3 13 -10 10 -15 -3 -5 7 -4 21 1 34 13 38 13 29 -2 -5 -7 -3 -8 6 -3 7 4 16
2 21 -6 7 -12 9 -11 9 1 0 13 2 13 9 1 8 -13 12 -13 27 0 15 12 17 12 9 0 -6
-11 -4 -13 8 -8 9 3 23 0 31 -8 7 -8 16 -11 20 -8 3 3 12 0 21 -7 8 -7 21 -10
29 -7 8 3 17 1 20 -6 3 -9 7 -8 14 2 8 11 10 11 14 0 4 -12 8 -11 23 1 15 12
17 12 10 1 -6 -11 -4 -13 11 -7 10 4 15 4 12 0 -18 -18 30 -32 170 -48 84 -11
178 -16 208 -13 64 7 136 37 129 54 -2 7 1 15 7 19 7 5 8 2 4 -7 -4 -8 -1 -5
8 5 8 10 13 22 11 26 -3 4 5 16 18 26 l22 19 -19 -22 c-11 -13 -15 -23 -9 -23
5 0 21 23 35 51 23 43 24 51 11 56 -9 3 -27 -2 -42 -11 -41 -27 -94 -49 -126
-53 -16 -1 -42 -8 -56 -14 -21 -8 -50 -8 -88 0 -2 1 2 7 8 15 7 8 9 25 6 39
-11 43 -60 54 -296 68 -150 8 -221 16 -237 26 -13 8 -44 15 -68 16 -24 1 -46
7 -48 13 -2 6 -25 15 -50 18 -44 7 -60 22 -33 31 6 2 93 6 192 9 264 7 336 18
435 64 60 28 117 104 107 143 -3 11 -1 22 4 25 5 3 7 10 3 15 -3 6 3 13 15 16
12 3 21 12 21 19 0 8 5 14 10 14 6 0 10 7 10 15 0 8 4 15 10 15 15 0 32 77 21
97 -9 17 -11 25 -11 39 0 3 -18 -9 -40 -26 -22 -17 -40 -29 -40 -26 0 3 -16
-10 -36 -30 -45 -43 -84 -60 -148 -63 -28 -1 -54 -5 -58 -8 -24 -14 -67 -13
-82 3 -9 9 -36 21 -58 26 -48 10 -69 4 -167 -54 -100 -58 -160 -74 -234 -60
-74 13 -166 25 -250 31 -10 0 -16 5 -13 10 4 5 1 11 -4 13 -6 2 -2 13 9 25 12
13 17 25 11 28 -6 3 -10 12 -10 18 0 7 4 6 10 -3 8 -13 10 -12 10 3 0 9 6 17
13 17 7 0 8 3 2 8 -16 11 -14 42 2 42 8 0 12 4 9 8 -3 5 0 9 7 10 29 2 48 9
59 20 7 7 20 12 30 12 10 0 18 4 18 8 0 4 15 16 33 27 17 10 37 24 43 29 6 6
22 18 34 26 31 21 90 76 90 84 0 4 11 18 25 32 14 14 25 28 25 32 0 4 11 19
25 34 19 20 27 42 31 85 5 53 3 60 -21 86 -14 15 -31 27 -37 27 -7 0 -7 4 1
13 6 8 8 17 4 20 -3 4 -2 7 4 7 6 0 23 20 37 45 35 59 63 86 111 109 22 10 48
23 59 28 19 10 51 19 74 20 22 2 13 18 -10 18 -13 0 -32 7 -42 15 -23 17 -116
20 -116 4 0 -5 -4 -7 -10 -4 -5 3 -10 1 -10 -5 0 -6 -4 -8 -10 -5 -5 3 -10 1
-10 -5 0 -6 -4 -9 -9 -6 -5 3 -20 -3 -34 -14 -14 -11 -30 -20 -35 -20 -17 0
-80 -72 -104 -119 -13 -25 -29 -52 -35 -59 -7 -7 -13 -23 -13 -34 0 -11 -8
-28 -18 -37 -10 -9 -25 -45 -33 -81 -13 -61 -18 -69 -95 -145 -94 -93 -106
-101 -167 -110 -53 -8 -133 18 -142 46 -3 9 -18 27 -32 40 -21 18 -24 19 -13
4 14 -18 14 -19 -2 -7 -9 7 -15 22 -13 32 2 11 1 19 -3 17 -4 -1 -8 2 -9 7 -3
17 -27 25 -43 13 -12 -9 -12 -8 1 8 18 22 14 50 -4 38 -7 -4 -20 -9 -31 -10
-16 -3 -15 -1 4 15 l23 19 -24 16 c-13 10 -20 17 -15 17 5 0 -1 8 -12 19 -12
10 -19 21 -15 25 3 3 1 6 -6 6 -7 0 -9 5 -5 12 4 7 3 8 -4 4 -6 -4 -9 -13 -6
-20 3 -7 -2 -16 -12 -20 -14 -5 -15 -4 -5 8 10 11 8 17 -10 30 -19 13 -20 18
-9 31 9 11 9 15 1 15 -7 0 -9 5 -6 10 3 6 2 10 -4 10 -5 0 -13 -4 -16 -10 -3
-5 -1 -10 5 -10 6 0 8 -5 4 -11 -4 -8 -9 -7 -15 2 -4 7 -6 16 -3 20 2 4 1 9
-3 12 -5 2 -3 2 4 1 7 -2 15 1 18 6 4 6 1 10 -5 10 -6 0 -8 5 -5 10 3 5 1 10
-5 10 -6 0 -8 5 -5 10 3 6 2 10 -4 10 -5 0 -13 9 -16 20 -3 11 -11 20 -17 20
-6 0 -3 -11 6 -25 19 -29 20 -39 4 -29 -7 4 -8 3 -4 -5 4 -6 12 -9 17 -6 5 4
9 1 9 -4 0 -6 -7 -11 -15 -11 -15 0 -19 11 -16 39 2 7 -2 11 -7 7 -12 -7 -12
26 1 42 12 16 -5 16 -21 0 -9 -9 -12 -9 -12 0 0 7 5 12 10 12 6 0 10 9 10 20
0 11 -4 20 -10 20 -5 0 -7 -8 -3 -17 3 -10 3 -15 -1 -12 -12 11 -16 50 -4 43
5 -4 3 5 -6 18 -9 13 -18 38 -19 54 -2 16 -12 44 -21 63 -13 23 -16 45 -12 70
14 77 14 105 0 118 -8 8 -18 12 -23 9 -6 -4 -6 5 -2 21 5 18 14 27 24 25 11
-2 17 4 17 15 0 15 2 16 10 3 9 -13 10 -13 10 0 0 12 12 14 60 12 34 -2 69 0
78 4 9 4 20 6 25 6 4 -1 7 2 7 8 0 5 6 7 14 4 8 -3 17 -1 20 5 4 6 14 7 23 4
11 -4 14 -3 9 5 -5 8 -2 10 8 6 9 -3 16 -1 16 5 0 6 3 10 8 9 15 -5 92 26 81
32 -6 5 -3 9 10 13 12 3 19 1 16 -3 -3 -4 4 -6 15 -3 11 3 23 10 27 16 4 6 1
7 -7 2 -9 -5 -11 -4 -6 4 4 6 11 9 16 6 5 -3 12 -1 15 5 5 8 12 7 23 -2 13
-11 15 -10 9 4 -3 10 -1 20 5 24 7 4 8 3 4 -4 -4 -7 -2 -12 3 -12 6 0 11 5 11
11 0 5 5 7 10 4 6 -3 10 -1 10 5 0 6 5 8 10 5 6 -3 10 2 11 12 0 17 1 17 7 0
7 -16 8 -16 24 2 9 11 13 22 10 26 -4 3 2 3 12 -1 15 -6 17 -4 11 7 -7 11 -5
11 10 -1 15 -12 17 -12 10 -1 -6 11 -4 13 8 8 10 -3 17 -2 17 3 0 5 9 7 20 5
11 -2 20 0 20 6 0 5 11 9 25 9 22 0 106 27 160 50 11 5 44 16 74 24 29 9 59
20 66 26 13 11 229 83 340 114 145 41 231 71 238 83 7 11 12 12 23 2 12 -10
15 -10 12 2 -2 9 4 13 16 11 10 -2 15 1 12 6 -4 6 3 8 16 4 16 -4 19 -2 13 9
-7 11 -5 11 10 -1 17 -14 18 -13 12 2 -4 13 -1 16 15 13 12 -3 27 0 35 6 10 9
13 8 14 -2 0 -8 4 -5 9 6 5 11 9 14 9 7 1 -7 6 -10 11 -7 6 4 7 12 3 18 -4 7
0 6 10 -2 12 -10 17 -10 17 -1 0 6 6 10 13 7 6 -2 18 3 25 12 8 9 11 10 7 4
-3 -7 -1 -13 4 -13 6 0 11 4 11 9 0 5 8 8 18 7 9 -2 20 1 23 7 4 5 35 11 69
13 34 2 69 9 77 16 23 19 147 47 254 58 52 6 135 17 185 26 146 26 216 27 428
8 110 -11 251 -19 311 -19 l110 0 3 29 c2 15 -1 26 -6 23 -5 -4 -9 0 -9 8 0 8
5 15 11 15 6 0 4 5 -4 10 -8 5 -10 10 -4 10 6 0 11 7 11 15 0 8 -5 15 -11 15
-6 0 -4 5 4 10 13 9 13 11 0 20 -8 5 -10 10 -4 10 6 0 11 7 11 15 0 8 -6 15
-14 15 -7 0 -13 4 -13 9 0 5 -30 12 -67 16 -38 4 -99 13 -138 21 -172 36 -159
35 -585 68 -30 3 -86 9 -125 14 -38 6 -99 13 -135 16 -108 9 -175 19 -180 26
-6 9 -410 52 -487 52 -18 0 -37 6 -44 14 -7 9 -31 14 -64 14 -29 0 -90 7 -137
15 -46 8 -98 15 -116 17 -18 1 -32 6 -32 11 0 5 -7 6 -16 3 -9 -4 -22 -2 -29
4 -13 11 -26 14 -95 29 -19 4 -47 15 -62 25 -19 12 -52 18 -115 21 -49 1 -89
7 -91 13 -2 6 -10 8 -18 5 -8 -3 -14 0 -14 6 0 6 -3 10 -7 9 -17 -3 -83 15
-83 23 0 5 -7 5 -17 2 -12 -5 -14 -3 -8 7 5 8 4 11 -2 7 -10 -6 -86 16 -79 24
2 2 -10 5 -27 6 -17 1 -33 6 -36 10 -3 5 -17 10 -31 11 -14 2 -30 8 -36 13 -6
5 -14 6 -17 2 -4 -3 -16 2 -27 12 -11 10 -20 15 -20 10 0 -4 -11 0 -24 9 -14
8 -38 17 -55 18 -17 1 -31 5 -31 9 0 6 -81 34 -92 31 -5 -1 -8 2 -8 6 0 5 -7
9 -15 10 -8 1 -22 3 -30 4 -8 1 -15 5 -15 10 0 5 -6 8 -12 6 -7 -1 -24 4 -37
11 -19 11 -22 11 -15 -1 6 -10 3 -9 -10 2 -10 8 -24 15 -32 17 -28 6 -49 11
-49 13 0 2 -13 5 -55 13 -14 3 -65 15 -115 28 -49 12 -96 22 -102 22 -7 0 -13
4 -13 9 0 4 -3 7 -7 6 -13 -4 -133 24 -133 31 0 3 -10 6 -22 7 -40 2 -103 15
-111 24 -5 4 -3 11 4 15 8 5 10 4 5 -3 -4 -7 -1 -12 8 -12 9 0 16 3 16 8 0 4
15 7 33 8 53 2 161 24 168 35 3 6 10 10 15 10 22 -2 73 12 69 19 -2 4 7 5 21
2 17 -3 30 2 39 14 10 13 14 15 15 5 0 -10 6 -10 26 4 15 9 23 12 20 6 -5 -7
-1 -9 8 -5 9 3 16 10 16 16 0 5 4 7 9 4 7 -5 27 0 91 22 51 18 230 17 230 0 0
-5 3 -7 8 -6 15 4 92 -14 98 -23 3 -5 15 -9 28 -9 13 0 33 -9 46 -20 19 -16
37 -20 109 -20 47 0 127 -2 176 -6 50 -3 113 -7 142 -7 33 -1 49 -5 45 -12 -3
-5 1 -4 10 3 11 9 18 10 23 2 4 -7 12 -7 26 0 14 8 19 7 19 -2 0 -8 3 -9 8 -3
4 6 18 11 32 12 61 3 90 8 90 14 0 4 10 9 22 12 18 5 19 8 8 22 -11 13 -10 15
6 9 10 -4 16 -4 12 1 -4 4 -2 15 5 23 10 13 9 14 -2 7 -11 -6 -12 -5 -5 6 12
20 14 39 3 39 -4 0 -6 7 -3 15 4 8 0 23 -7 32 -8 9 -9 14 -2 10 7 -5 9 0 6 13
-3 11 -10 20 -16 20 -6 0 -7 3 -4 7 4 3 -1 15 -10 26 -13 15 -14 19 -3 13 8
-4 6 0 -4 8 -15 12 -16 16 -5 16 8 0 10 3 4 8 -5 4 -11 22 -11 41 -1 18 -7 37
-14 41 -15 9 9 39 48 60 16 8 22 18 19 31 -3 10 0 22 5 26 7 4 8 1 3 -7 -5 -8
-3 -11 6 -8 8 3 14 18 14 36 0 18 3 32 7 32 3 0 3 13 -2 29 -4 16 -6 32 -2 35
3 3 0 6 -7 6 -7 0 -10 4 -6 9 3 5 0 13 -6 17 -8 4 -7 9 2 15 10 6 7 10 -11 18
-14 5 -19 10 -12 10 15 1 16 31 1 31 -6 0 -9 7 -5 15 3 8 1 15 -4 15 -6 0 -10
7 -10 16 0 8 -4 12 -10 9 -5 -3 -7 0 -5 8 3 7 -3 24 -15 37 -15 18 -17 26 -8
37 8 10 7 17 -7 27 -15 11 -16 15 -4 34 8 12 19 22 25 22 23 0 38 49 27 90 -5
22 -6 40 -2 40 14 0 10 32 -6 64 -9 16 -13 31 -10 34 3 3 -3 14 -12 25 -10 11
-12 17 -5 13 6 -4 12 -2 12 3 0 6 -4 11 -8 11 -9 0 -11 10 -13 68 -1 20 -6 43
-12 50 -7 9 -5 11 8 6 12 -5 16 -4 11 4 -3 6 -1 14 5 17 5 4 8 13 5 21 -3 9 1
14 12 15 10 0 12 3 4 6 -6 2 -9 9 -6 15 9 15 5 161 -5 168 -13 7 -31 81 -24
93 3 6 1 7 -5 3 -8 -5 -12 0 -12 13 0 12 -5 21 -11 21 -5 0 -7 -5 -3 -12 4 -6
3 -8 -4 -5 -5 4 -8 16 -5 27 3 12 0 20 -6 20 -7 0 -9 4 -6 10 3 6 -1 7 -9 4
-11 -4 -16 0 -16 10 0 9 -8 20 -17 23 -10 4 -21 11 -25 17 -5 7 -8 6 -8 -4 -1
-9 -6 -5 -15 10 -8 14 -14 19 -15 12 0 -10 -4 -10 -16 2 -8 9 -22 16 -30 16
-12 0 -15 10 -14 38 1 20 1 39 0 42 -1 3 -2 31 -3 63 -1 31 -5 57 -9 57 -4 0
-8 9 -8 19 0 11 -6 22 -12 24 -10 4 -10 6 0 6 10 1 10 4 0 15 -7 8 -17 11 -23
8 -5 -2 -5 1 2 8 9 10 7 17 -8 33 -17 18 -29 50 -13 34 9 -9 34 19 34 37 0 9
5 16 11 16 5 0 7 5 4 11 -4 5 -9 25 -12 42 -6 39 -21 59 -37 50 -6 -4 -5 1 3
11 12 15 12 17 0 14 -9 -2 -13 4 -11 16 2 11 -1 15 -7 11 -6 -3 -11 1 -11 9 0
9 -6 16 -12 16 -10 0 -10 2 0 9 10 6 9 10 -7 14 -12 3 -21 11 -21 19 0 10 3 9
11 -2 9 -13 10 -13 6 0 -2 8 -10 14 -17 12 -6 -1 -14 7 -17 18 -3 12 -11 19
-19 16 -9 -3 -11 0 -7 11 4 11 2 14 -5 9 -7 -4 -12 -2 -12 4 0 7 -7 10 -14 7
-11 -4 -13 -1 -9 10 4 11 2 14 -5 9 -7 -4 -12 -2 -12 3 0 6 -7 11 -15 11 -8 0
-15 4 -15 10 0 5 -6 9 -12 7 -7 -1 -12 3 -11 8 1 6 -10 11 -24 12 -14 0 -29 7
-33 13 -5 7 -15 10 -24 7 -8 -3 -18 -1 -22 5 -4 7 -3 8 4 4 20 -12 13 4 -13
29 -25 26 -41 33 -29 13 4 -7 3 -8 -5 -4 -6 4 -9 11 -6 16 7 12 -23 33 -36 24
-9 -5 -10 -2 -6 10 4 10 3 15 -3 11 -6 -3 -10 -1 -10 4 0 6 -9 11 -20 11 -11
0 -25 9 -32 20 -14 21 -34 28 -22 8 4 -8 3 -10 -2 -5 -5 5 -9 14 -9 20 -1 7
-7 11 -14 9 -7 -1 -20 5 -28 15 -8 10 -12 12 -8 6 9 -19 -6 -16 -22 5 -8 10
-11 11 -7 2 7 -13 6 -13 -10 0 -10 8 -27 15 -38 17 -12 2 -27 11 -35 21 -8 9
-11 11 -7 3 5 -9 3 -12 -4 -7 -9 5 -9 13 -1 28 8 15 8 19 -1 13 -7 -4 -14 1
-17 15 -3 12 -11 19 -19 16 -9 -3 -11 0 -7 11 4 11 3 14 -6 9 -8 -5 -11 -3 -9
6 2 8 -13 28 -32 44 -19 16 -28 20 -20 10 14 -18 14 -18 -7 -6 -12 8 -19 20
-15 28 3 9 1 13 -5 9 -16 -10 -44 3 -36 16 4 6 -2 8 -15 5 -14 -4 -19 -2 -15
7 3 10 -2 12 -16 8 -15 -4 -21 -1 -21 12 0 14 -3 15 -14 6 -11 -9 -16 -9 -22
0 -5 8 -3 10 7 4 8 -5 11 -4 6 0 -4 5 -15 10 -25 11 -28 4 -61 12 -72 19 -6 3
-10 0 -10 -7 0 -9 -3 -9 -10 2 -7 11 -10 12 -10 2 0 -10 -4 -10 -16 2 -21 21
-30 20 -13 -1 13 -16 12 -17 -3 -4 -10 7 -18 19 -18 26 0 7 -7 16 -16 19 -15
6 -15 4 -3 -11 11 -13 11 -15 1 -9 -7 4 -17 18 -22 31 -5 13 -19 29 -32 35
-22 11 -22 10 2 -10 24 -20 24 -21 2 -10 -13 6 -25 17 -28 25 -3 7 -13 16 -21
19 -14 6 -14 4 -2 -11 7 -10 -2 -4 -20 12 -19 17 -31 24 -26 16 5 -9 -1 -7
-19 4 -14 10 -26 13 -26 9 0 -5 -5 -2 -10 6 -9 13 -10 13 -10 0 -1 -12 -3 -11
-11 3 -6 9 -15 15 -20 11 -5 -3 -15 -1 -22 4 -7 5 -21 8 -32 6 -11 -1 -29 5
-40 14 -16 13 -17 14 -7 1 9 -13 9 -16 -3 -16 -8 0 -15 6 -15 14 0 7 -7 13
-16 13 -8 0 -12 5 -9 10 3 6 1 10 -5 10 -6 0 -8 5 -4 13 5 8 2 8 -9 -2 -12 -9
-17 -10 -17 -2 0 7 -4 9 -10 6 -9 -6 -14 7 -11 27 0 4 -6 5 -15 1 -9 -3 -21 3
-30 15 -9 13 -21 18 -34 15 -15 -4 -20 0 -20 13 0 11 -4 15 -8 9 -10 -14 -32
-17 -32 -5 0 5 -9 10 -19 10 -11 0 -26 6 -33 13 -16 14 -50 20 -140 21 -36 0
-65 3 -62 7 2 3 -5 15 -16 26 -10 12 -16 24 -12 29 4 4 -1 4 -11 1 -12 -5 -16
-3 -11 5 5 8 2 9 -10 5 -9 -4 -14 -3 -11 2 3 5 0 13 -6 16 -5 4 -8 13 -5 20 3
9 -2 11 -16 7 -14 -3 -19 -1 -14 6 5 8 1 10 -10 5 -10 -4 -15 -2 -11 3 3 6 -4
16 -16 24 -21 12 -21 12 -7 -6 8 -10 -2 -5 -22 13 -38 33 -83 47 -150 47 -21
0 -38 4 -38 7 0 4 -16 14 -35 23 -20 10 -35 23 -34 29 3 24 -1 37 -12 37 -8 0
-7 -5 1 -15 11 -13 10 -14 -4 -9 -11 4 -16 14 -13 25 6 22 -17 43 -37 36 -10
-4 -14 0 -11 12 3 14 -1 17 -16 14 -13 -4 -26 3 -40 21 -18 23 -28 26 -78 26
-35 0 -65 -6 -79 -16 -12 -8 -26 -13 -31 -10 -4 3 -17 -2 -27 -12 -10 -9 -34
-17 -51 -16 -21 0 -35 -5 -38 -15 -5 -18 -49 -41 -76 -41 -9 0 -20 -8 -23 -17
-6 -15 -8 -15 -16 -3 -8 12 -10 12 -10 1 0 -8 -6 -11 -16 -7 -8 3 -12 2 -9 -4
5 -9 -15 -15 -37 -11 -5 0 -8 -4 -8 -10 0 -5 -4 -7 -10 -4 -5 3 -10 2 -10 -4
0 -12 -27 -8 -43 8 -9 10 -7 16 13 32 14 12 19 18 13 14 -15 -7 -18 11 -3 20
6 3 10 15 10 26 0 10 4 19 9 19 5 0 7 9 4 20 -3 12 0 20 8 20 7 0 9 3 6 6 -3
4 -2 15 3 25 6 10 6 20 1 23 -5 3 -7 19 -6 36 1 16 -1 27 -6 24 -9 -5 -12 7
-10 36 0 10 -1 11 -5 3 -3 -7 -10 -13 -15 -13 -6 0 -7 5 -4 10 3 6 1 10 -5 10
-6 0 -8 5 -5 11 4 6 0 9 -10 7 -16 -3 -24 11 -27 49 -1 7 -5 10 -9 7 -5 -3
-17 4 -28 15 -11 11 -29 24 -40 30 -42 23 -162 6 -186 -26 -10 -12 -14 -13
-15 -5 0 10 -4 9 -16 -2 -8 -9 -20 -14 -25 -11 -5 4 -6 -2 -2 -12 6 -16 5 -16
-11 -4 -9 8 -16 10 -15 5 4 -22 -2 -35 -13 -28 -6 4 -16 1 -22 -7 -18 -23 -62
-56 -51 -39 6 10 4 9 -6 -2 -9 -9 -19 -14 -23 -11 -3 4 -6 0 -6 -7 0 -7 -3
-10 -7 -7 -3 4 -16 -2 -27 -12 -12 -11 -25 -20 -31 -20 -5 -1 -10 -7 -10 -13
-1 -7 -7 -12 -14 -10 -7 1 -10 -2 -6 -8 3 -5 1 -10 -5 -10 -6 0 -9 -4 -5 -9 3
-5 1 -12 -5 -16 -5 -3 -10 0 -10 7 -1 7 -9 -2 -19 -21 -12 -23 -20 -30 -24
-20 -4 10 -6 9 -6 -4 -1 -10 -12 -22 -26 -27 -14 -5 -25 -17 -25 -25 0 -16
-58 -47 -72 -39 -5 3 -8 19 -8 35 0 21 4 28 13 23 9 -5 9 -4 0 6 -12 13 2 60
18 60 5 0 6 7 3 15 -3 8 -2 20 2 27 11 18 5 67 -13 101 -8 16 -12 36 -8 45 3
9 3 13 -1 10 -7 -7 -48 28 -50 43 -1 5 -2 15 -3 22 -1 8 -4 7 -11 -3 -8 -13
-10 -13 -10 2 0 9 4 18 8 20 5 2 -5 14 -22 28 -17 13 -25 17 -17 7 21 -27 -5
-21 -37 8 -28 26 -86 33 -143 15z m206 -50 c3 -5 1 -10 -4 -10 -6 0 -11 5 -11
10 0 6 2 10 4 10 3 0 8 -4 11 -10z m823 -105 c-3 -3 -9 2 -12 12 -6 14 -5 15
5 6 7 -7 10 -15 7 -18z m697 -284 c3 -5 0 -13 -6 -17 -7 -4 -9 -3 -5 4 3 5 0
13 -6 15 -9 4 -10 6 -1 6 6 1 14 -3 18 -8z m1695 -831 c8 -5 11 -10 5 -10 -5
0 -17 5 -25 10 -8 5 -10 10 -5 10 6 0 17 -5 25 -10z m780 -760 c0 -5 -5 -10
-11 -10 -5 0 -7 5 -4 10 3 6 8 10 11 10 2 0 4 -4 4 -10z m-6525 -3660 c3 -6
-1 -7 -9 -4 -18 7 -21 14 -7 14 6 0 13 -4 16 -10z m5481 -709 c5 -1 20 -10 31
-20 12 -11 23 -17 26 -15 3 3 14 -3 25 -14 11 -11 18 -23 15 -26 -4 -3 -2 -6
4 -6 6 0 16 -13 23 -30 7 -16 16 -27 21 -24 5 3 6 -2 3 -10 -3 -9 -2 -16 3
-16 5 0 17 -18 27 -40 10 -22 22 -40 27 -40 6 0 8 -4 4 -9 -3 -6 5 -20 17 -32
13 -12 16 -18 8 -14 -11 6 -10 3 3 -12 9 -11 17 -25 17 -32 0 -7 5 -9 13 -5 6
4 9 4 5 0 -4 -5 -3 -18 2 -31 11 -28 -14 -43 -38 -23 -12 10 -16 10 -19 1 -3
-7 -12 -13 -20 -13 -9 0 -21 -7 -27 -14 -6 -8 -18 -16 -26 -18 -8 -2 -44 -32
-79 -67 -43 -44 -65 -60 -71 -52 -5 9 -11 8 -23 -4 -9 -9 -27 -18 -39 -20 -12
-3 -24 -8 -27 -12 -3 -5 -15 -10 -26 -11 -11 -2 -22 -7 -25 -12 -4 -6 -32 -18
-60 -25 -3 -1 -17 -7 -33 -13 -15 -7 -39 -14 -53 -16 -14 -3 -31 -9 -37 -14
-7 -5 -31 -10 -53 -11 -31 -2 -43 2 -48 14 -13 35 138 510 168 527 8 5 20 25
27 45 12 38 31 63 46 63 4 0 21 12 37 28 28 26 55 30 152 23z m271 -73 c-2 -7
0 -26 4 -42 5 -18 5 -26 0 -20 -14 14 -18 74 -5 74 3 0 4 -6 1 -12z m-4116
-85 c13 -16 12 -17 -3 -4 -17 13 -22 21 -14 21 2 0 10 -8 17 -17z m4309 -223
c8 -5 11 -12 8 -16 -4 -3 -14 1 -23 10 -18 17 -9 21 15 6z m21 -37 c-11 -5
-11 -7 0 -14 8 -5 9 -9 3 -9 -6 0 -16 6 -22 13 -8 10 -6 13 11 14 12 0 16 -1
8 -4z m-1271 -77 c0 -3 -4 -8 -10 -11 -5 -3 -10 -1 -10 4 0 6 5 11 10 11 6 0
10 -2 10 -4z m1060 -636 c0 -5 -5 -10 -11 -10 -5 0 -7 5 -4 10 3 6 8 10 11 10
2 0 4 -4 4 -10z m1910 -254 c0 -3 -4 -8 -10 -11 -5 -3 -10 -1 -10 4 0 6 5 11
10 11 6 0 10 -2 10 -4z"/>
<path d="M3876 10161 c-3 -5 2 -15 12 -22 15 -12 16 -12 5 2 -7 9 -10 19 -6
22 3 4 4 7 0 7 -3 0 -8 -4 -11 -9z"/>
<path d="M960 5681 c0 -7 -5 -9 -12 -5 -7 5 -8 3 -3 -5 5 -9 10 -10 18 -2 6 6
8 14 4 18 -4 3 -7 1 -7 -6z"/>
<path d="M8752 3781 c-10 -6 -10 -10 2 -20 12 -10 15 -9 13 8 -1 12 -1 21 -2
21 0 0 -6 -4 -13 -9z"/>
</g>
</svg>
